<svg class="main-svg" xmlns="http://www.w3.org/2000/svg" xmlns:xlink="http://www.w3.org/1999/xlink" width="700" height="450" style="" viewBox="0 0 700 450"><rect x="0" y="0" width="700" height="450" style="fill: rgb(255, 255, 255); fill-opacity: 1;"/><defs id="defs-ab78ed"><g class="clips"><clipPath id="clipab78edxyplot" class="plotclip"><rect width="552" height="330"/></clipPath><clipPath class="axesclip" id="clipab78edx"><rect x="60" y="0" width="552" height="450"/></clipPath><clipPath class="axesclip" id="clipab78edy"><rect x="0" y="60" width="700" height="330"/></clipPath><clipPath class="axesclip" id="clipab78edxy"><rect x="60" y="60" width="552" height="330"/></clipPath></g><g class="gradients"/></defs><g class="bglayer"/><g class="layer-below"><g class="imagelayer"/><g class="shapelayer"/></g><g class="cartesianlayer"><g class="subplot xy"><g class="layer-subplot"><g class="shapelayer"/><g class="imagelayer"/></g><g class="gridlayer"><g class="x"><path class="xgrid crisp" transform="translate(198.69,0)" d="M0,60v330" style="stroke: rgb(238, 238, 238); stroke-opacity: 1; stroke-width: 1px;"/><path class="xgrid crisp" transform="translate(337.39,0)" d="M0,60v330" style="stroke: rgb(238, 238, 238); stroke-opacity: 1; stroke-width: 1px;"/><path class="xgrid crisp" transform="translate(476.08,0)" d="M0,60v330" style="stroke: rgb(238, 238, 238); stroke-opacity: 1; stroke-width: 1px;"/></g><g class="y"><path class="ygrid crisp" transform="translate(0,332.18)" d="M60,0h552" style="stroke: rgb(238, 238, 238); stroke-opacity: 1; stroke-width: 1px;"/><path class="ygrid crisp" transform="translate(0,290.86)" d="M60,0h552" style="stroke: rgb(238, 238, 238); stroke-opacity: 1; stroke-width: 1px;"/><path class="ygrid crisp" transform="translate(0,249.54)" d="M60,0h552" style="stroke: rgb(238, 238, 238); stroke-opacity: 1; stroke-width: 1px;"/><path class="ygrid crisp" transform="translate(0,208.22)" d="M60,0h552" style="stroke: rgb(238, 238, 238); stroke-opacity: 1; stroke-width: 1px;"/><path class="ygrid crisp" transform="translate(0,166.91)" d="M60,0h552" style="stroke: rgb(238, 238, 238); stroke-opacity: 1; stroke-width: 1px;"/><path class="ygrid crisp" transform="translate(0,125.59)" d="M60,0h552" style="stroke: rgb(238, 238, 238); stroke-opacity: 1; stroke-width: 1px;"/><path class="ygrid crisp" transform="translate(0,84.27)" d="M60,0h552" style="stroke: rgb(238, 238, 238); stroke-opacity: 1; stroke-width: 1px;"/></g></g><g class="zerolinelayer"><path class="xzl zl crisp" transform="translate(60,0)" d="M0,60v330" style="stroke: rgb(68, 68, 68); stroke-opacity: 1; stroke-width: 1px;"/><path class="yzl zl crisp" transform="translate(0,373.5)" d="M60,0h552" style="stroke: rgb(68, 68, 68); stroke-opacity: 1; stroke-width: 1px;"/></g><path class="xlines-below"/><path class="ylines-below"/><g class="overlines-below"/><g class="xaxislayer-below"/><g class="yaxislayer-below"/><g class="overaxes-below"/><g class="plot" transform="translate(60, 60)" clip-path="url('#clipab78edxyplot')"><g class="scatterlayer mlayer"><g class="trace scatter trace4a8dd6" style="stroke-miterlimit: 2; opacity: 1;"><g class="fills"/><g class="errorbars"/><g class="lines"><path class="js-line" d="M0,313.5L0,241.44L2.77,243.8L5.55,212.02L8.32,208.55L11.1,199.63L13.87,185.29L16.64,182.06L19.42,190.49L22.19,178.84L24.96,178.55L30.51,166.03L33.29,172.73L36.06,163.26L38.83,176.07L41.61,173.55L44.38,153.43L47.16,164.17L49.93,155.17L52.7,163.06L55.48,156.32L58.25,127.19L61.03,135.99L63.8,134.22L66.57,149.05L69.35,135.83L72.12,135.5L77.67,135.04L80.44,116.33L83.22,116.08L85.99,111.49L91.54,104.72L94.31,104.51L97.09,124.96L99.86,109.55L102.63,102.57L105.41,115.29L108.18,97.77L110.95,96.2L113.73,95.63L116.5,97.73L119.28,91L122.05,96L124.82,96.08L127.6,84.84L130.37,84.51L133.15,90.71L135.92,85.05L138.69,89.68L141.47,79.76L144.24,85.09L147.02,74.97L149.79,80.01L152.56,70.21L155.34,70.96L158.11,78.35L160.88,70.63L163.66,75.96L166.43,71.33L169.21,66.87L171.98,63.93L174.75,68.31L177.53,66.83L180.3,62.41L183.08,63.27L185.85,59.06L188.62,62.2L191.4,66.12L194.17,52.94L199.72,62.41L202.49,52.78L205.27,59.97L208.04,57.2L210.81,52.53L213.59,58.15L216.36,53.77L219.14,51L221.91,49.39L224.68,51.08L227.46,52.41L230.23,48.23L233.01,54.84L235.78,51.87L238.55,45.96L241.33,44.89L244.1,53.44L246.87,43.73L249.65,41.87L252.42,51.29L255.2,51.04L257.97,52.74L260.74,36.58L263.52,38.56L266.29,40.88L269.07,36.91L271.84,48.19L274.61,40.67L277.39,33.32L280.16,36L282.93,31.5L285.71,32.86L291.26,35.75L294.03,33.03L296.8,30.55L299.58,31.83L302.35,31.13L305.13,28.57L307.9,31.87L310.67,29.47L313.45,31.91L316.22,31.54L318.99,31L321.77,28.48L324.54,29.93L327.32,28.9L330.09,30.18L332.86,29.27L338.41,26.38L341.19,37.86L343.96,27.28L346.73,27.16L349.51,27.33L352.28,29.47L355.06,29.39L357.83,27.53L360.6,27.74L363.38,26.25L366.15,25.05L368.92,25.26L371.7,26.95L374.47,27.57L377.25,30.55L380.02,24.72L382.79,20.96L385.57,27.78L388.34,29.02L391.12,23.11L393.89,27.04L396.66,26.04L399.44,24.23L402.21,23.85L404.98,21.46L407.76,23.94L410.53,23.44L413.31,28.23L416.08,27.37L418.85,25.01L421.63,20.26L424.4,23.77L427.18,21L429.95,20.43L432.72,20.71L435.5,23.94L438.27,23.23L441.05,23.81L443.82,21.95L446.59,21.62L449.37,22.37L452.14,19.02L454.91,21.62L457.69,21L460.46,24.93L463.24,21.42L468.78,22.37L471.56,19.19L477.11,20.55L479.88,17.95L482.65,20.59L485.43,24.76L488.2,24.19L490.97,21.13L493.75,21.25L496.52,18.11L499.3,19.14L502.07,21.21L504.84,18.77L507.62,19.6L510.39,18.94L513.17,21.21L515.94,17.82L518.71,21.79L521.49,18.98L524.26,19.31L529.81,19.23L532.58,17.29L535.36,16.5L538.13,18.48L543.68,18.48L546.45,20.18L552,19.56" style="vector-effect: non-scaling-stroke; fill: none; stroke: rgb(31, 119, 180); stroke-opacity: 1; stroke-width: 2px; opacity: 1;"/></g><g class="points"/><g class="text"/></g></g></g><g class="overplot"/><path class="xlines-above crisp" d="M0,0" style="fill: none;"/><path class="ylines-above crisp" d="M0,0" style="fill: none;"/><g class="overlines-above"/><g class="xaxislayer-above"><g class="xtick"><text text-anchor="middle" x="0" y="403" transform="translate(60,0)" style="font-family: 'Open Sans', verdana, arial, sans-serif; font-size: 12px; fill: rgb(68, 68, 68); fill-opacity: 1; white-space: pre;">0</text></g><g class="xtick"><text text-anchor="middle" x="0" y="403" transform="translate(198.69,0)" style="font-family: 'Open Sans', verdana, arial, sans-serif; font-size: 12px; fill: rgb(68, 68, 68); fill-opacity: 1; white-space: pre;">50</text></g><g class="xtick"><text text-anchor="middle" x="0" y="403" transform="translate(337.39,0)" style="font-family: 'Open Sans', verdana, arial, sans-serif; font-size: 12px; fill: rgb(68, 68, 68); fill-opacity: 1; white-space: pre;">100</text></g><g class="xtick"><text text-anchor="middle" x="0" y="403" transform="translate(476.08,0)" style="font-family: 'Open Sans', verdana, arial, sans-serif; font-size: 12px; fill: rgb(68, 68, 68); fill-opacity: 1; white-space: pre;">150</text></g></g><g class="yaxislayer-above"><g class="ytick"><text text-anchor="end" x="59" y="4.199999999999999" transform="translate(0,373.5)" style="font-family: 'Open Sans', verdana, arial, sans-serif; font-size: 12px; fill: rgb(68, 68, 68); fill-opacity: 1; white-space: pre;">0</text></g><g class="ytick"><text text-anchor="end" x="59" y="4.199999999999999" transform="translate(0,332.18)" style="font-family: 'Open Sans', verdana, arial, sans-serif; font-size: 12px; fill: rgb(68, 68, 68); fill-opacity: 1; white-space: pre;">10</text></g><g class="ytick"><text text-anchor="end" x="59" y="4.199999999999999" transform="translate(0,290.86)" style="font-family: 'Open Sans', verdana, arial, sans-serif; font-size: 12px; fill: rgb(68, 68, 68); fill-opacity: 1; white-space: pre;">20</text></g><g class="ytick"><text text-anchor="end" x="59" y="4.199999999999999" transform="translate(0,249.54)" style="font-family: 'Open Sans', verdana, arial, sans-serif; font-size: 12px; fill: rgb(68, 68, 68); fill-opacity: 1; white-space: pre;">30</text></g><g class="ytick"><text text-anchor="end" x="59" y="4.199999999999999" transform="translate(0,208.22)" style="font-family: 'Open Sans', verdana, arial, sans-serif; font-size: 12px; fill: rgb(68, 68, 68); fill-opacity: 1; white-space: pre;">40</text></g><g class="ytick"><text text-anchor="end" x="59" y="4.199999999999999" transform="translate(0,166.91)" style="font-family: 'Open Sans', verdana, arial, sans-serif; font-size: 12px; fill: rgb(68, 68, 68); fill-opacity: 1; white-space: pre;">50</text></g><g class="ytick"><text text-anchor="end" x="59" y="4.199999999999999" transform="translate(0,125.59)" style="font-family: 'Open Sans', verdana, arial, sans-serif; font-size: 12px; fill: rgb(68, 68, 68); fill-opacity: 1; white-space: pre;">60</text></g><g class="ytick"><text text-anchor="end" x="59" y="4.199999999999999" transform="translate(0,84.27)" style="font-family: 'Open Sans', verdana, arial, sans-serif; font-size: 12px; fill: rgb(68, 68, 68); fill-opacity: 1; white-space: pre;">70</text></g></g><g class="overaxes-above"/></g></g><g class="polarlayer"/><g class="ternarylayer"/><g class="geolayer"/><g class="funnelarealayer"/><g class="pielayer"/><g class="treemaplayer"/><g class="sunburstlayer"/><g class="glimages"/><defs id="topdefs-ab78ed"><g class="clips"/><clipPath id="legendab78ed"><rect width="65" height="29" x="0" y="0"/></clipPath></defs><g class="layer-above"><g class="imagelayer"/><g class="shapelayer"/></g><g class="infolayer"><g class="legend" pointer-events="all" transform="translate(623.04, 60)"><rect class="bg" shape-rendering="crispEdges" width="65" height="29" x="0" y="0" style="stroke: rgb(68, 68, 68); stroke-opacity: 1; fill: rgb(255, 255, 255); fill-opacity: 1; stroke-width: 0px;"/><g class="scrollbox" transform="translate(0, 0)" clip-path="url('#legendab78ed')"><g class="groups"><g class="traces" transform="translate(0, 14.5)" style="opacity: 1;"><text class="legendtext user-select-none" text-anchor="start" x="40" y="4.680000000000001" style="font-family: 'Open Sans', verdana, arial, sans-serif; font-size: 12px; fill: rgb(68, 68, 68); fill-opacity: 1; white-space: pre;">acc</text><g class="layers" style="opacity: 1;"><g class="legendfill"/><g class="legendlines"><path class="js-line" d="M5,0h30" style="fill: none; stroke: rgb(31, 119, 180); stroke-opacity: 1; stroke-width: 2px;"/></g><g class="legendsymbols"><g class="legendpoints"/></g></g><rect class="legendtoggle" pointer-events="all" x="0" y="-9.5" width="59.85937690734863" height="19" style="cursor: pointer; fill: rgb(0, 0, 0); fill-opacity: 0;"/></g></g></g><rect class="scrollbar" rx="20" ry="3" width="0" height="0" x="0" y="0" style="fill: rgb(128, 139, 164); fill-opacity: 1;"/></g><g class="g-gtitle"><text class="gtitle" x="350" y="30" text-anchor="middle" dy="0em" style="font-family: 'Open Sans', verdana, arial, sans-serif; font-size: 17px; fill: rgb(68, 68, 68); opacity: 1; font-weight: normal; white-space: pre;">accuracy</text></g><g class="g-xtitle"/><g class="g-ytitle"/></g></svg>