<svg class="main-svg" xmlns="http://www.w3.org/2000/svg" xmlns:xlink="http://www.w3.org/1999/xlink" width="700" height="450" style="" viewBox="0 0 700 450"><rect x="0" y="0" width="700" height="450" style="fill: rgb(255, 255, 255); fill-opacity: 1;"/><defs id="defs-72ef1d"><g class="clips"><clipPath id="clip72ef1dxyplot" class="plotclip"><rect width="544" height="330"/></clipPath><clipPath class="axesclip" id="clip72ef1dx"><rect x="60" y="0" width="544" height="450"/></clipPath><clipPath class="axesclip" id="clip72ef1dy"><rect x="0" y="60" width="700" height="330"/></clipPath><clipPath class="axesclip" id="clip72ef1dxy"><rect x="60" y="60" width="544" height="330"/></clipPath></g><g class="gradients"/></defs><g class="bglayer"/><g class="layer-below"><g class="imagelayer"/><g class="shapelayer"/></g><g class="cartesianlayer"><g class="subplot xy"><g class="layer-subplot"><g class="shapelayer"/><g class="imagelayer"/></g><g class="gridlayer"><g class="x"><path class="xgrid crisp" transform="translate(196.68,0)" d="M0,60v330" style="stroke: rgb(238, 238, 238); stroke-opacity: 1; stroke-width: 1px;"/><path class="xgrid crisp" transform="translate(333.37,0)" d="M0,60v330" style="stroke: rgb(238, 238, 238); stroke-opacity: 1; stroke-width: 1px;"/><path class="xgrid crisp" transform="translate(470.05,0)" d="M0,60v330" style="stroke: rgb(238, 238, 238); stroke-opacity: 1; stroke-width: 1px;"/></g><g class="y"><path class="ygrid crisp" transform="translate(0,314.52)" d="M60,0h544" style="stroke: rgb(238, 238, 238); stroke-opacity: 1; stroke-width: 1px;"/><path class="ygrid crisp" transform="translate(0,255.54)" d="M60,0h544" style="stroke: rgb(238, 238, 238); stroke-opacity: 1; stroke-width: 1px;"/><path class="ygrid crisp" transform="translate(0,196.57)" d="M60,0h544" style="stroke: rgb(238, 238, 238); stroke-opacity: 1; stroke-width: 1px;"/><path class="ygrid crisp" transform="translate(0,137.59)" d="M60,0h544" style="stroke: rgb(238, 238, 238); stroke-opacity: 1; stroke-width: 1px;"/><path class="ygrid crisp" transform="translate(0,78.61)" d="M60,0h544" style="stroke: rgb(238, 238, 238); stroke-opacity: 1; stroke-width: 1px;"/></g></g><g class="zerolinelayer"><path class="xzl zl crisp" transform="translate(60,0)" d="M0,60v330" style="stroke: rgb(68, 68, 68); stroke-opacity: 1; stroke-width: 1px;"/><path class="yzl zl crisp" transform="translate(0,373.5)" d="M60,0h544" style="stroke: rgb(68, 68, 68); stroke-opacity: 1; stroke-width: 1px;"/></g><path class="xlines-below"/><path class="ylines-below"/><g class="overlines-below"/><g class="xaxislayer-below"/><g class="yaxislayer-below"/><g class="overaxes-below"/><g class="plot" transform="translate(60, 60)" clip-path="url('#clip72ef1dxyplot')"><g class="scatterlayer mlayer"><g class="trace scatter tracec9408c" style="stroke-miterlimit: 2; opacity: 1;"><g class="fills"/><g class="errorbars"/><g class="lines"><path class="js-line" d="M0,313.5L0,16.5L2.73,33.15L5.47,42.98L8.2,49.52L10.93,54.83L13.67,57.57L16.4,64.86L19.14,68.66L21.87,71.69L24.6,76.41L27.34,79.86L30.07,80.88L35.54,87.69L38.27,90.16L46.47,98.16L49.21,99.94L51.94,103.88L54.67,105.89L57.41,107.21L60.14,109.85L71.08,121.94L73.81,123.66L79.28,127.56L82.01,132.59L84.74,132.15L87.48,134.55L90.21,135.02L92.94,137.35L95.68,139.98L98.41,141.35L103.88,147.82L106.61,147.14L109.35,151.53L112.08,151.74L123.02,158.01L125.75,160.74L128.48,161.3L131.22,163.11L139.42,167.95L142.15,168.91L147.62,170.18L150.35,173.26L155.82,175.51L158.55,175.39L161.29,177.43L164.02,177.52L166.75,179.59L169.49,179.95L172.22,183.08L174.95,183.69L177.69,185.18L180.42,184.58L183.16,186.53L185.89,186.48L188.62,189.21L191.36,188.74L194.09,192.21L196.82,191.57L199.56,192.51L202.29,194.53L205.03,194.38L207.76,196.14L210.49,196.52L213.23,198.18L215.96,199.57L218.69,198.65L221.43,199.79L224.16,199.61L229.63,202.55L232.36,202.97L235.1,202.46L237.83,204.52L240.56,205.41L243.3,205.15L246.03,207.58L248.76,208.18L251.5,208.36L254.23,209.51L256.96,210.78L259.7,210.85L265.17,212.82L267.9,211.93L270.63,213.84L273.37,219.29L276.1,219.32L278.83,220.36L284.3,221.16L287.04,221.52L289.77,222.56L292.5,222.59L300.7,223.5L303.44,224.1L311.64,224.61L314.37,225.02L328.04,226.81L330.77,226.72L333.51,226.9L336.24,228.12L338.97,227.24L341.71,228.37L349.91,230.09L352.64,229.68L360.84,230.45L363.58,230.65L366.31,231.48L369.05,231.17L374.51,231.94L377.25,232.09L390.91,233.72L393.65,233.75L399.12,234.46L401.85,234.66L410.05,235.93L412.78,235.78L420.98,237.25L423.72,236.85L431.92,237.37L434.65,237.97L437.39,238.01L440.12,238.81L442.85,238.3L445.59,239.4L451.06,239.5L453.79,239.53L470.19,241.5L472.92,241.51L475.66,241.2L478.39,242.11L489.33,243.12L492.06,243.68L494.79,243.31L497.53,244.17L500.26,243.68L502.99,244.67L508.46,244.54L511.2,244.68L516.66,245.68L519.4,245.62L527.6,246.6L530.33,247.58L533.07,246.86L535.8,247.12L544,248.46" style="vector-effect: non-scaling-stroke; fill: none; stroke: rgb(31, 119, 180); stroke-opacity: 1; stroke-width: 2px; opacity: 1;"/></g><g class="points"/><g class="text"/></g><g class="trace scatter trace4b3930" style="stroke-miterlimit: 2; opacity: 1;"><g class="fills"/><g class="errorbars"/><g class="lines"><path class="js-line" d="M0,313.5L0,42.67L2.73,36.92L5.47,59.03L8.2,61.53L10.93,73.36L13.67,76.15L16.4,79.73L19.14,82.08L21.87,81.5L24.6,89.66L30.07,100.42L32.8,92.28L35.54,90.99L38.27,72.37L41.01,74.58L43.74,91.2L46.47,90.75L49.21,89.17L51.94,73.4L54.67,83.09L57.41,129.93L60.14,124.74L62.87,111.51L65.61,90.72L68.34,104.54L71.08,113.57L73.81,115.76L76.54,91.14L79.28,133.12L82.01,130.12L84.74,140.87L87.48,138.33L92.94,146.05L95.68,121.18L98.41,141.94L101.15,151.54L103.88,116.51L106.61,152.52L109.35,152.19L112.08,149.91L114.81,134.91L117.55,160.56L120.28,153.38L123.02,149.42L125.75,164.01L128.48,163.98L131.22,149.59L133.95,164.52L136.68,153.2L139.42,163.85L142.15,140.84L144.88,170.68L147.62,166.16L150.35,173.47L153.09,172.45L155.82,152.89L158.55,171.13L161.29,166.19L164.02,173.4L166.75,176L169.49,180.74L172.22,175.88L174.95,180.28L177.69,176.92L180.42,174.66L183.16,180.45L185.89,175.4L188.62,177.85L191.36,184.81L194.09,183.7L196.82,173.07L199.56,189.37L202.29,171.48L205.03,188.56L207.76,190.36L210.49,183.8L213.23,188.18L215.96,184.28L218.69,190.56L221.43,186.06L224.16,187.18L226.89,192.27L232.36,154.2L235.1,182.78L237.83,194.09L240.56,139.39L243.3,191.87L246.03,198.98L248.76,147.31L251.5,183.32L254.23,148.62L256.96,201.05L259.7,187.67L262.43,199.47L265.17,200.27L267.9,186.09L270.63,199.19L273.37,204.61L276.1,204.05L278.83,205.1L281.57,200.28L284.3,204.26L287.04,196.73L289.77,203.99L295.24,206.31L297.97,208.84L300.7,207.69L303.44,205.14L306.17,207.59L308.9,201.83L311.64,207.41L314.37,207.61L317.11,210.08L319.84,206.95L322.57,207.86L325.31,206.36L328.04,207.76L330.77,206.24L333.51,208.97L336.24,180.56L338.97,207.51L341.71,206.97L344.44,208.47L347.18,208.3L349.91,209.51L352.64,209.27L355.38,208.56L358.11,209.86L363.58,209.99L366.31,210.87L371.78,207.83L374.51,211.78L377.25,213.39L379.98,208.83L382.71,191.4L385.45,211.09L388.18,207.65L390.91,211.26L393.65,208.44L396.38,209.35L399.12,213.45L401.85,211.33L404.58,212.76L407.32,200.71L410.05,207.82L412.78,211.44L415.52,212.66L418.25,212.14L420.98,211.49L423.72,213.15L431.92,211.8L434.65,212.88L437.39,212.37L440.12,214.11L442.85,211.71L445.59,213.71L448.32,210.72L451.06,212.39L453.79,203.47L456.52,213.07L459.26,211.52L461.99,212.14L464.72,213.12L467.46,213.28L472.92,213.3L475.66,213.15L478.39,211.79L481.13,202.3L483.86,211.04L486.59,212.59L492.06,214.58L494.79,213.33L500.26,211.62L502.99,214.3L505.73,212.95L508.46,213.51L511.2,211.19L513.93,212.71L516.66,214.89L519.4,214.34L522.13,212.81L524.86,212.92L527.6,213.61L530.33,213.33L533.07,209.71L535.8,213.54L538.53,212.37L541.27,213.04L544,212.87" style="vector-effect: non-scaling-stroke; fill: none; stroke: rgb(255, 127, 14); stroke-opacity: 1; stroke-width: 2px; opacity: 1;"/></g><g class="points"/><g class="text"/></g></g></g><g class="overplot"/><path class="xlines-above crisp" d="M0,0" style="fill: none;"/><path class="ylines-above crisp" d="M0,0" style="fill: none;"/><g class="overlines-above"/><g class="xaxislayer-above"><g class="xtick"><text text-anchor="middle" x="0" y="403" transform="translate(60,0)" style="font-family: 'Open Sans', verdana, arial, sans-serif; font-size: 12px; fill: rgb(68, 68, 68); fill-opacity: 1; white-space: pre;">0</text></g><g class="xtick"><text text-anchor="middle" x="0" y="403" transform="translate(196.68,0)" style="font-family: 'Open Sans', verdana, arial, sans-serif; font-size: 12px; fill: rgb(68, 68, 68); fill-opacity: 1; white-space: pre;">50</text></g><g class="xtick"><text text-anchor="middle" x="0" y="403" transform="translate(333.37,0)" style="font-family: 'Open Sans', verdana, arial, sans-serif; font-size: 12px; fill: rgb(68, 68, 68); fill-opacity: 1; white-space: pre;">100</text></g><g class="xtick"><text text-anchor="middle" x="0" y="403" transform="translate(470.05,0)" style="font-family: 'Open Sans', verdana, arial, sans-serif; font-size: 12px; fill: rgb(68, 68, 68); fill-opacity: 1; white-space: pre;">150</text></g></g><g class="yaxislayer-above"><g class="ytick"><text text-anchor="end" x="59" y="4.199999999999999" transform="translate(0,373.5)" style="font-family: 'Open Sans', verdana, arial, sans-serif; font-size: 12px; fill: rgb(68, 68, 68); fill-opacity: 1; white-space: pre;">0</text></g><g class="ytick"><text text-anchor="end" x="59" y="4.199999999999999" transform="translate(0,314.52)" style="font-family: 'Open Sans', verdana, arial, sans-serif; font-size: 12px; fill: rgb(68, 68, 68); fill-opacity: 1; white-space: pre;">0.5</text></g><g class="ytick"><text text-anchor="end" x="59" y="4.199999999999999" transform="translate(0,255.54)" style="font-family: 'Open Sans', verdana, arial, sans-serif; font-size: 12px; fill: rgb(68, 68, 68); fill-opacity: 1; white-space: pre;">1</text></g><g class="ytick"><text text-anchor="end" x="59" y="4.199999999999999" transform="translate(0,196.57)" style="font-family: 'Open Sans', verdana, arial, sans-serif; font-size: 12px; fill: rgb(68, 68, 68); fill-opacity: 1; white-space: pre;">1.5</text></g><g class="ytick"><text text-anchor="end" x="59" y="4.199999999999999" transform="translate(0,137.59)" style="font-family: 'Open Sans', verdana, arial, sans-serif; font-size: 12px; fill: rgb(68, 68, 68); fill-opacity: 1; white-space: pre;">2</text></g><g class="ytick"><text text-anchor="end" x="59" y="4.199999999999999" transform="translate(0,78.61)" style="font-family: 'Open Sans', verdana, arial, sans-serif; font-size: 12px; fill: rgb(68, 68, 68); fill-opacity: 1; white-space: pre;">2.5</text></g></g><g class="overaxes-above"/></g></g><g class="polarlayer"/><g class="ternarylayer"/><g class="geolayer"/><g class="funnelarealayer"/><g class="pielayer"/><g class="treemaplayer"/><g class="sunburstlayer"/><g class="glimages"/><defs id="topdefs-72ef1d"><g class="clips"/><clipPath id="legend72ef1d"><rect width="73" height="48" x="0" y="0"/></clipPath></defs><g class="layer-above"><g class="imagelayer"/><g class="shapelayer"/></g><g class="infolayer"><g class="legend" pointer-events="all" transform="translate(614.88, 60)"><rect class="bg" shape-rendering="crispEdges" width="73" height="48" x="0" y="0" style="stroke: rgb(68, 68, 68); stroke-opacity: 1; fill: rgb(255, 255, 255); fill-opacity: 1; stroke-width: 0px;"/><g class="scrollbox" transform="translate(0, 0)" clip-path="url('#legend72ef1d')"><g class="groups"><g class="traces" transform="translate(0, 14.5)" style="opacity: 1;"><text class="legendtext user-select-none" text-anchor="start" x="40" y="4.680000000000001" style="font-family: 'Open Sans', verdana, arial, sans-serif; font-size: 12px; fill: rgb(68, 68, 68); fill-opacity: 1; white-space: pre;">train</text><g class="layers" style="opacity: 1;"><g class="legendfill"/><g class="legendlines"><path class="js-line" d="M5,0h30" style="fill: none; stroke: rgb(31, 119, 180); stroke-opacity: 1; stroke-width: 2px;"/></g><g class="legendsymbols"><g class="legendpoints"/></g></g><rect class="legendtoggle" pointer-events="all" x="0" y="-9.5" width="67.73437690734863" height="19" style="cursor: pointer; fill: rgb(0, 0, 0); fill-opacity: 0;"/></g><g class="traces" transform="translate(0, 33.5)" style="opacity: 1;"><text class="legendtext user-select-none" text-anchor="start" x="40" y="4.680000000000001" style="font-family: 'Open Sans', verdana, arial, sans-serif; font-size: 12px; fill: rgb(68, 68, 68); fill-opacity: 1; white-space: pre;">val</text><g class="layers" style="opacity: 1;"><g class="legendfill"/><g class="legendlines"><path class="js-line" d="M5,0h30" style="fill: none; stroke: rgb(255, 127, 14); stroke-opacity: 1; stroke-width: 2px;"/></g><g class="legendsymbols"><g class="legendpoints"/></g></g><rect class="legendtoggle" pointer-events="all" x="0" y="-9.5" width="67.73437690734863" height="19" style="cursor: pointer; fill: rgb(0, 0, 0); fill-opacity: 0;"/></g></g></g><rect class="scrollbar" rx="20" ry="3" width="0" height="0" x="0" y="0" style="fill: rgb(128, 139, 164); fill-opacity: 1;"/></g><g class="g-gtitle"><text class="gtitle" x="350" y="30" text-anchor="middle" dy="0em" style="font-family: 'Open Sans', verdana, arial, sans-serif; font-size: 17px; fill: rgb(68, 68, 68); opacity: 1; font-weight: normal; white-space: pre;">train&amp;&amp;val loss</text></g><g class="g-xtitle"/><g class="g-ytitle"/></g></svg>