<svg class="main-svg" xmlns="http://www.w3.org/2000/svg" xmlns:xlink="http://www.w3.org/1999/xlink" width="700" height="450" style="" viewBox="0 0 700 450"><rect x="0" y="0" width="700" height="450" style="fill: rgb(255, 255, 255); fill-opacity: 1;"/><defs id="defs-90c60a"><g class="clips"><clipPath id="clip90c60axyplot" class="plotclip"><rect width="552" height="330"/></clipPath><clipPath class="axesclip" id="clip90c60ax"><rect x="60" y="0" width="552" height="450"/></clipPath><clipPath class="axesclip" id="clip90c60ay"><rect x="0" y="60" width="700" height="330"/></clipPath><clipPath class="axesclip" id="clip90c60axy"><rect x="60" y="60" width="552" height="330"/></clipPath></g><g class="gradients"/></defs><g class="bglayer"/><g class="layer-below"><g class="imagelayer"/><g class="shapelayer"/></g><g class="cartesianlayer"><g class="subplot xy"><g class="layer-subplot"><g class="shapelayer"/><g class="imagelayer"/></g><g class="gridlayer"><g class="x"><path class="xgrid crisp" transform="translate(203.01,0)" d="M0,60v330" style="stroke: rgb(238, 238, 238); stroke-opacity: 1; stroke-width: 1px;"/><path class="xgrid crisp" transform="translate(346.01,0)" d="M0,60v330" style="stroke: rgb(238, 238, 238); stroke-opacity: 1; stroke-width: 1px;"/><path class="xgrid crisp" transform="translate(489.02,0)" d="M0,60v330" style="stroke: rgb(238, 238, 238); stroke-opacity: 1; stroke-width: 1px;"/></g><g class="y"><path class="ygrid crisp" transform="translate(0,334.45)" d="M60,0h552" style="stroke: rgb(238, 238, 238); stroke-opacity: 1; stroke-width: 1px;"/><path class="ygrid crisp" transform="translate(0,295.4)" d="M60,0h552" style="stroke: rgb(238, 238, 238); stroke-opacity: 1; stroke-width: 1px;"/><path class="ygrid crisp" transform="translate(0,256.36)" d="M60,0h552" style="stroke: rgb(238, 238, 238); stroke-opacity: 1; stroke-width: 1px;"/><path class="ygrid crisp" transform="translate(0,217.31)" d="M60,0h552" style="stroke: rgb(238, 238, 238); stroke-opacity: 1; stroke-width: 1px;"/><path class="ygrid crisp" transform="translate(0,178.26)" d="M60,0h552" style="stroke: rgb(238, 238, 238); stroke-opacity: 1; stroke-width: 1px;"/><path class="ygrid crisp" transform="translate(0,139.20999999999998)" d="M60,0h552" style="stroke: rgb(238, 238, 238); stroke-opacity: 1; stroke-width: 1px;"/><path class="ygrid crisp" transform="translate(0,100.16)" d="M60,0h552" style="stroke: rgb(238, 238, 238); stroke-opacity: 1; stroke-width: 1px;"/><path class="ygrid crisp" transform="translate(0,61.12)" d="M60,0h552" style="stroke: rgb(238, 238, 238); stroke-opacity: 1; stroke-width: 1px;"/></g></g><g class="zerolinelayer"><path class="xzl zl crisp" transform="translate(60,0)" d="M0,60v330" style="stroke: rgb(68, 68, 68); stroke-opacity: 1; stroke-width: 1px;"/><path class="yzl zl crisp" transform="translate(0,373.5)" d="M60,0h552" style="stroke: rgb(68, 68, 68); stroke-opacity: 1; stroke-width: 1px;"/></g><path class="xlines-below"/><path class="ylines-below"/><g class="overlines-below"/><g class="xaxislayer-below"/><g class="yaxislayer-below"/><g class="overaxes-below"/><g class="plot" transform="translate(60, 60)" clip-path="url('#clip90c60axyplot')"><g class="scatterlayer mlayer"><g class="trace scatter tracef709c8" style="stroke-miterlimit: 2; opacity: 1;"><g class="fills"/><g class="errorbars"/><g class="lines"><path class="js-line" d="M0,313.5L0,241.5L2.86,206L5.72,179.56L8.58,192.72L11.44,169.3L14.3,157.31L17.16,138.06L20.02,144.66L22.88,128.57L25.74,123.06L28.6,109.43L31.46,115.76L34.32,102.72L37.18,108.3L40.04,123.69L42.9,104.75L45.76,94.01L48.62,92.57L51.48,99.95L54.34,94.71L57.2,95.42L60.06,84.6L62.92,84.91L65.78,82.18L68.64,78.39L71.5,77.14L77.22,75.42L80.08,71.83L82.94,69.64L85.8,70.46L88.66,75.38L91.52,70.11L94.38,79.33L97.24,75.58L100.1,54.53L102.96,59.22L105.82,56.95L108.68,64.53L111.54,56.68L114.4,60.08L117.26,53.28L120.12,56.17L122.98,60.94L125.84,57.7L128.7,78.51L131.56,55.08L134.42,49.42L137.28,50.98L140.15,40.4L143.01,39.66L145.87,34.66L148.73,36.49L151.59,33.6L154.45,34.66L157.31,37.31L160.17,37.59L163.03,33.29L165.89,35.2L168.75,34.27L171.61,31.61L177.33,33.45L180.19,33.17L183.05,31.03L185.91,32.59L188.77,32.82L191.63,30.09L194.49,33.72L197.35,30.48L200.21,30.13L203.07,30.67L205.93,31.69L208.79,30.09L211.65,31.18L214.51,28.02L217.37,38.99L220.23,29.7L223.09,29.54L225.95,30.91L228.81,28.1L231.67,27.28L234.53,30.6L237.39,29.23L240.25,28.76L243.11,27.04L245.97,30.71L248.83,29.62L251.69,30.99L254.55,27.82L257.41,29.39L260.27,28.96L263.13,27L265.99,29.11L268.85,32.51L271.71,28.53L274.57,24.9L277.43,27.36L280.29,29.07L283.15,25.09L286.01,20.87L288.87,21.38L291.73,23.41L294.59,23.1L297.45,21.19L300.31,21.77L306.03,20.95L308.89,21.38L311.75,23.88L314.61,20.76L317.47,21.03L320.33,20.52L323.19,20.6L326.05,23.29L328.91,19.58L331.77,21.89L334.63,21.22L337.49,22.51L343.21,20.21L346.07,20.99L348.93,21.26L351.79,22.83L354.65,19.27L357.51,22.51L360.37,21.77L363.23,20.13L366.09,21.93L368.95,22.32L371.81,22.47L374.67,20.05L377.53,21.42L380.39,20.44L383.25,20.17L386.11,18.92L388.97,20.33L391.83,19.47L394.69,17.71L397.55,21.77L400.41,20.64L403.27,20.87L406.13,20.17L408.99,22.55L411.85,18.34L414.72,18.49L417.58,19.82L420.44,22.44L423.3,20.33L426.16,19.82L431.88,19.31L434.74,18.26L437.6,19.82L440.46,18.76L443.32,17.71L446.18,18.49L449.04,19.39L451.9,18.53L454.76,20.09L457.62,17.48L460.48,17.16L463.34,19.39L469.06,18.02L471.92,18.41L477.64,17.79L480.5,18.37L483.36,18.61L486.22,17.83L491.94,19.55L494.8,19.66L497.66,23.49L500.52,18.61L503.38,17.94L506.24,19.35L509.1,21.11L511.96,19.43L514.82,19.78L517.68,18.1L520.54,16.5L523.4,18.65L526.26,18.65L529.12,20.25L531.98,18.73L534.84,19.04L537.7,17.55L540.56,17.79L543.42,19.55L546.28,19.04L552,17.79" style="vector-effect: non-scaling-stroke; fill: none; stroke: rgb(31, 119, 180); stroke-opacity: 1; stroke-width: 2px; opacity: 1;"/></g><g class="points"/><g class="text"/></g></g></g><g class="overplot"/><path class="xlines-above crisp" d="M0,0" style="fill: none;"/><path class="ylines-above crisp" d="M0,0" style="fill: none;"/><g class="overlines-above"/><g class="xaxislayer-above"><g class="xtick"><text text-anchor="middle" x="0" y="403" transform="translate(60,0)" style="font-family: 'Open Sans', verdana, arial, sans-serif; font-size: 12px; fill: rgb(68, 68, 68); fill-opacity: 1; white-space: pre;">0</text></g><g class="xtick"><text text-anchor="middle" x="0" y="403" transform="translate(203.01,0)" style="font-family: 'Open Sans', verdana, arial, sans-serif; font-size: 12px; fill: rgb(68, 68, 68); fill-opacity: 1; white-space: pre;">50</text></g><g class="xtick"><text text-anchor="middle" x="0" y="403" transform="translate(346.01,0)" style="font-family: 'Open Sans', verdana, arial, sans-serif; font-size: 12px; fill: rgb(68, 68, 68); fill-opacity: 1; white-space: pre;">100</text></g><g class="xtick"><text text-anchor="middle" x="0" y="403" transform="translate(489.02,0)" style="font-family: 'Open Sans', verdana, arial, sans-serif; font-size: 12px; fill: rgb(68, 68, 68); fill-opacity: 1; white-space: pre;">150</text></g></g><g class="yaxislayer-above"><g class="ytick"><text text-anchor="end" x="59" y="4.199999999999999" transform="translate(0,373.5)" style="font-family: 'Open Sans', verdana, arial, sans-serif; font-size: 12px; fill: rgb(68, 68, 68); fill-opacity: 1; white-space: pre;">0</text></g><g class="ytick"><text text-anchor="end" x="59" y="4.199999999999999" transform="translate(0,334.45)" style="font-family: 'Open Sans', verdana, arial, sans-serif; font-size: 12px; fill: rgb(68, 68, 68); fill-opacity: 1; white-space: pre;">10</text></g><g class="ytick"><text text-anchor="end" x="59" y="4.199999999999999" transform="translate(0,295.4)" style="font-family: 'Open Sans', verdana, arial, sans-serif; font-size: 12px; fill: rgb(68, 68, 68); fill-opacity: 1; white-space: pre;">20</text></g><g class="ytick"><text text-anchor="end" x="59" y="4.199999999999999" transform="translate(0,256.36)" style="font-family: 'Open Sans', verdana, arial, sans-serif; font-size: 12px; fill: rgb(68, 68, 68); fill-opacity: 1; white-space: pre;">30</text></g><g class="ytick"><text text-anchor="end" x="59" y="4.199999999999999" transform="translate(0,217.31)" style="font-family: 'Open Sans', verdana, arial, sans-serif; font-size: 12px; fill: rgb(68, 68, 68); fill-opacity: 1; white-space: pre;">40</text></g><g class="ytick"><text text-anchor="end" x="59" y="4.199999999999999" transform="translate(0,178.26)" style="font-family: 'Open Sans', verdana, arial, sans-serif; font-size: 12px; fill: rgb(68, 68, 68); fill-opacity: 1; white-space: pre;">50</text></g><g class="ytick"><text text-anchor="end" x="59" y="4.199999999999999" transform="translate(0,139.20999999999998)" style="font-family: 'Open Sans', verdana, arial, sans-serif; font-size: 12px; fill: rgb(68, 68, 68); fill-opacity: 1; white-space: pre;">60</text></g><g class="ytick"><text text-anchor="end" x="59" y="4.199999999999999" transform="translate(0,100.16)" style="font-family: 'Open Sans', verdana, arial, sans-serif; font-size: 12px; fill: rgb(68, 68, 68); fill-opacity: 1; white-space: pre;">70</text></g><g class="ytick"><text text-anchor="end" x="59" y="4.199999999999999" transform="translate(0,61.12)" style="font-family: 'Open Sans', verdana, arial, sans-serif; font-size: 12px; fill: rgb(68, 68, 68); fill-opacity: 1; white-space: pre;">80</text></g></g><g class="overaxes-above"/></g></g><g class="polarlayer"/><g class="ternarylayer"/><g class="geolayer"/><g class="funnelarealayer"/><g class="pielayer"/><g class="treemaplayer"/><g class="sunburstlayer"/><g class="glimages"/><defs id="topdefs-90c60a"><g class="clips"/><clipPath id="legend90c60a"><rect width="65" height="29" x="0" y="0"/></clipPath></defs><g class="layer-above"><g class="imagelayer"/><g class="shapelayer"/></g><g class="infolayer"><g class="legend" pointer-events="all" transform="translate(623.04, 60)"><rect class="bg" shape-rendering="crispEdges" width="65" height="29" x="0" y="0" style="stroke: rgb(68, 68, 68); stroke-opacity: 1; fill: rgb(255, 255, 255); fill-opacity: 1; stroke-width: 0px;"/><g class="scrollbox" transform="translate(0, 0)" clip-path="url('#legend90c60a')"><g class="groups"><g class="traces" transform="translate(0, 14.5)" style="opacity: 1;"><text class="legendtext user-select-none" text-anchor="start" x="40" y="4.680000000000001" style="font-family: 'Open Sans', verdana, arial, sans-serif; font-size: 12px; fill: rgb(68, 68, 68); fill-opacity: 1; white-space: pre;">acc</text><g class="layers" style="opacity: 1;"><g class="legendfill"/><g class="legendlines"><path class="js-line" d="M5,0h30" style="fill: none; stroke: rgb(31, 119, 180); stroke-opacity: 1; stroke-width: 2px;"/></g><g class="legendsymbols"><g class="legendpoints"/></g></g><rect class="legendtoggle" pointer-events="all" x="0" y="-9.5" width="59.85937690734863" height="19" style="cursor: pointer; fill: rgb(0, 0, 0); fill-opacity: 0;"/></g></g></g><rect class="scrollbar" rx="20" ry="3" width="0" height="0" x="0" y="0" style="fill: rgb(128, 139, 164); fill-opacity: 1;"/></g><g class="g-gtitle"><text class="gtitle" x="350" y="30" text-anchor="middle" dy="0em" style="font-family: 'Open Sans', verdana, arial, sans-serif; font-size: 17px; fill: rgb(68, 68, 68); opacity: 1; font-weight: normal; white-space: pre;">accuracy</text></g><g class="g-xtitle"/><g class="g-ytitle"/></g></svg>