<svg class="main-svg" xmlns="http://www.w3.org/2000/svg" xmlns:xlink="http://www.w3.org/1999/xlink" width="700" height="450" style="" viewBox="0 0 700 450"><rect x="0" y="0" width="700" height="450" style="fill: rgb(255, 255, 255); fill-opacity: 1;"/><defs id="defs-9d6349"><g class="clips"><clipPath id="clip9d6349xyplot" class="plotclip"><rect width="544" height="330"/></clipPath><clipPath class="axesclip" id="clip9d6349x"><rect x="60" y="0" width="544" height="450"/></clipPath><clipPath class="axesclip" id="clip9d6349y"><rect x="0" y="60" width="700" height="330"/></clipPath><clipPath class="axesclip" id="clip9d6349xy"><rect x="60" y="60" width="544" height="330"/></clipPath></g><g class="gradients"/></defs><g class="bglayer"/><g class="layer-below"><g class="imagelayer"/><g class="shapelayer"/></g><g class="cartesianlayer"><g class="subplot xy"><g class="layer-subplot"><g class="shapelayer"/><g class="imagelayer"/></g><g class="gridlayer"><g class="x"><path class="xgrid crisp" transform="translate(201.67,0)" d="M0,60v330" style="stroke: rgb(238, 238, 238); stroke-opacity: 1; stroke-width: 1px;"/><path class="xgrid crisp" transform="translate(343.33,0)" d="M0,60v330" style="stroke: rgb(238, 238, 238); stroke-opacity: 1; stroke-width: 1px;"/><path class="xgrid crisp" transform="translate(485,0)" d="M0,60v330" style="stroke: rgb(238, 238, 238); stroke-opacity: 1; stroke-width: 1px;"/></g><g class="y"><path class="ygrid crisp" transform="translate(0,318.05)" d="M60,0h544" style="stroke: rgb(238, 238, 238); stroke-opacity: 1; stroke-width: 1px;"/><path class="ygrid crisp" transform="translate(0,262.61)" d="M60,0h544" style="stroke: rgb(238, 238, 238); stroke-opacity: 1; stroke-width: 1px;"/><path class="ygrid crisp" transform="translate(0,207.16)" d="M60,0h544" style="stroke: rgb(238, 238, 238); stroke-opacity: 1; stroke-width: 1px;"/><path class="ygrid crisp" transform="translate(0,151.72)" d="M60,0h544" style="stroke: rgb(238, 238, 238); stroke-opacity: 1; stroke-width: 1px;"/><path class="ygrid crisp" transform="translate(0,96.27000000000001)" d="M60,0h544" style="stroke: rgb(238, 238, 238); stroke-opacity: 1; stroke-width: 1px;"/></g></g><g class="zerolinelayer"><path class="xzl zl crisp" transform="translate(60,0)" d="M0,60v330" style="stroke: rgb(68, 68, 68); stroke-opacity: 1; stroke-width: 1px;"/><path class="yzl zl crisp" transform="translate(0,373.5)" d="M60,0h544" style="stroke: rgb(68, 68, 68); stroke-opacity: 1; stroke-width: 1px;"/></g><path class="xlines-below"/><path class="ylines-below"/><g class="overlines-below"/><g class="xaxislayer-below"/><g class="yaxislayer-below"/><g class="overaxes-below"/><g class="plot" transform="translate(60, 60)" clip-path="url('#clip9d6349xyplot')"><g class="scatterlayer mlayer"><g class="trace scatter trace62cc73" style="stroke-miterlimit: 2; opacity: 1;"><g class="fills"/><g class="errorbars"/><g class="lines"><path class="js-line" d="M0,313.5L0,142.75L2.83,165.42L5.67,186.69L8.5,201.45L11.33,207.55L14.17,211.34L17,214.03L19.83,218L22.67,224.24L25.5,223.76L34,234.98L36.83,237.79L39.67,234.15L42.5,240.4L48.17,243.46L51,246.89L53.83,246.28L56.67,248.69L59.5,249.31L62.33,251.51L70.83,256.29L73.67,256.61L79.33,258.64L82.17,257.86L87.83,251.33L90.67,253.45L93.5,258.65L96.33,261.37L99.17,261.76L102,263.5L113.33,266.84L116.17,268.31L119,269.36L121.83,269.26L124.67,270.17L127.5,269.64L136,271L138.83,272.51L141.67,275.25L144.5,275.56L150.17,276.24L153,276.84L161.5,277.43L164.33,277.91L170,277.61L172.83,278.26L192.67,280.13L195.5,280.19L201.17,280.71L204,280.77L212.5,281.4L215.33,281.45L221,282.18L223.83,282.04L229.5,282.51L232.33,282.7L246.5,283.72L249.33,284.2L257.83,284.49L260.67,284.56L274.83,285.76L277.67,285.76L280.5,285.79L283.33,287.15L291.83,287.91L294.67,288.06L317.33,288.8L320.17,289.32L357,290.41L359.83,290.24L374,290.86L376.83,290.85L385.33,291.4L388.17,291.59L413.67,292.23L416.5,292.45L427.83,293.18L430.67,293.3L442,293.93L444.83,293.8L450.5,294.09L453.33,294.35L456.17,293.77L459,294.21L470.33,294.46L473.17,294.42L524.17,295.56L527,295.53L544,295.92" style="vector-effect: non-scaling-stroke; fill: none; stroke: rgb(31, 119, 180); stroke-opacity: 1; stroke-width: 2px; opacity: 1;"/></g><g class="points"/><g class="text"/></g><g class="trace scatter tracebd7489" style="stroke-miterlimit: 2; opacity: 1;"><g class="fills"/><g class="errorbars"/><g class="lines"><path class="js-line" d="M0,313.5L0,139.37L2.83,196.77L5.67,211.27L8.5,16.5L11.33,181.76L14.17,170.26L17,226.29L19.83,201.66L22.67,233.59L25.5,227.85L28.33,236.82L31.17,232.95L34,215.45L36.83,241.33L39.67,230.01L42.5,232.23L45.33,245.58L48.17,241.33L51,201.48L53.83,242.24L56.67,244.9L59.5,243.95L62.33,237.44L65.17,239.86L68,244.21L70.83,250.51L73.67,241.31L76.5,249.69L79.33,243.66L82.17,252.74L85,236.88L87.83,187.91L90.67,240.61L93.5,235.82L96.33,242.27L99.17,261.28L102,257.52L104.83,259.31L107.67,255.91L110.5,259.18L113.33,257.87L116.17,259.76L119,259.13L121.83,236.78L124.67,236.44L127.5,239.62L130.33,258.48L133.17,260.38L136,235.22L138.83,265.29L141.67,265.09L144.5,267.45L153,268.31L155.83,264.82L161.5,268.65L164.33,268.13L167.17,267.51L170,268.86L175.67,267.88L178.5,269.02L187,268.39L189.83,268.39L192.67,268.17L195.5,269.27L204,267.96L206.83,268.39L209.67,268.66L212.5,269.71L215.33,259.12L218.17,269.62L221,268.6L223.83,263.67L226.67,270.07L229.5,265.96L232.33,268.38L235.17,268.97L238,270.16L240.83,269.38L243.67,268.34L246.5,268.98L249.33,267.89L252.17,269.11L263.5,269.29L266.33,265.64L269.17,269.33L272,269.9L277.67,268L280.5,269.97L283.33,271.87L286.17,271.91L291.83,270.35L294.67,271.49L300.33,271.15L303.17,271.15L306,271.79L308.83,270.6L311.67,271.36L314.5,271.04L320.17,271.62L323,270.02L325.83,271.43L328.67,270.55L331.5,271.28L334.33,270.73L348.5,270.67L351.33,271.66L354.17,269.51L357,270.48L359.83,270.98L362.67,270.05L365.5,270.48L368.33,269.93L371.17,271.3L374,270.07L376.83,269.7L379.67,270.26L385.33,271.28L388.17,270.89L393.83,270.31L396.67,270.97L399.5,269.95L402.33,270.09L408,270.2L410.83,271.03L416.5,270.42L419.33,269.96L439.17,270.38L442,270.48L444.83,270.12L447.67,270.85L450.5,269.1L453.33,269.78L456.17,271.15L459,270.68L470.33,270.21L473.17,270.42L478.83,270.36L481.67,269.71L490.17,269.77L493,268.7L495.83,269.67L498.67,269.72L501.5,268.88L504.33,269.67L507.17,268.61L510,269.7L518.5,269.88L521.33,268.94L527,269.11L529.83,269.46L532.67,269.15L535.5,270.24L538.33,268.5L541.17,269.39L544,269.66" style="vector-effect: non-scaling-stroke; fill: none; stroke: rgb(255, 127, 14); stroke-opacity: 1; stroke-width: 2px; opacity: 1;"/></g><g class="points"/><g class="text"/></g></g></g><g class="overplot"/><path class="xlines-above crisp" d="M0,0" style="fill: none;"/><path class="ylines-above crisp" d="M0,0" style="fill: none;"/><g class="overlines-above"/><g class="xaxislayer-above"><g class="xtick"><text text-anchor="middle" x="0" y="403" transform="translate(60,0)" style="font-family: 'Open Sans', verdana, arial, sans-serif; font-size: 12px; fill: rgb(68, 68, 68); fill-opacity: 1; white-space: pre;">0</text></g><g class="xtick"><text text-anchor="middle" x="0" y="403" transform="translate(201.67,0)" style="font-family: 'Open Sans', verdana, arial, sans-serif; font-size: 12px; fill: rgb(68, 68, 68); fill-opacity: 1; white-space: pre;">50</text></g><g class="xtick"><text text-anchor="middle" x="0" y="403" transform="translate(343.33,0)" style="font-family: 'Open Sans', verdana, arial, sans-serif; font-size: 12px; fill: rgb(68, 68, 68); fill-opacity: 1; white-space: pre;">100</text></g><g class="xtick"><text text-anchor="middle" x="0" y="403" transform="translate(485,0)" style="font-family: 'Open Sans', verdana, arial, sans-serif; font-size: 12px; fill: rgb(68, 68, 68); fill-opacity: 1; white-space: pre;">150</text></g></g><g class="yaxislayer-above"><g class="ytick"><text text-anchor="end" x="59" y="4.199999999999999" transform="translate(0,373.5)" style="font-family: 'Open Sans', verdana, arial, sans-serif; font-size: 12px; fill: rgb(68, 68, 68); fill-opacity: 1; white-space: pre;">0</text></g><g class="ytick"><text text-anchor="end" x="59" y="4.199999999999999" transform="translate(0,318.05)" style="font-family: 'Open Sans', verdana, arial, sans-serif; font-size: 12px; fill: rgb(68, 68, 68); fill-opacity: 1; white-space: pre;">1</text></g><g class="ytick"><text text-anchor="end" x="59" y="4.199999999999999" transform="translate(0,262.61)" style="font-family: 'Open Sans', verdana, arial, sans-serif; font-size: 12px; fill: rgb(68, 68, 68); fill-opacity: 1; white-space: pre;">2</text></g><g class="ytick"><text text-anchor="end" x="59" y="4.199999999999999" transform="translate(0,207.16)" style="font-family: 'Open Sans', verdana, arial, sans-serif; font-size: 12px; fill: rgb(68, 68, 68); fill-opacity: 1; white-space: pre;">3</text></g><g class="ytick"><text text-anchor="end" x="59" y="4.199999999999999" transform="translate(0,151.72)" style="font-family: 'Open Sans', verdana, arial, sans-serif; font-size: 12px; fill: rgb(68, 68, 68); fill-opacity: 1; white-space: pre;">4</text></g><g class="ytick"><text text-anchor="end" x="59" y="4.199999999999999" transform="translate(0,96.27000000000001)" style="font-family: 'Open Sans', verdana, arial, sans-serif; font-size: 12px; fill: rgb(68, 68, 68); fill-opacity: 1; white-space: pre;">5</text></g></g><g class="overaxes-above"/></g></g><g class="polarlayer"/><g class="ternarylayer"/><g class="geolayer"/><g class="funnelarealayer"/><g class="pielayer"/><g class="treemaplayer"/><g class="sunburstlayer"/><g class="glimages"/><defs id="topdefs-9d6349"><g class="clips"/><clipPath id="legend9d6349"><rect width="73" height="48" x="0" y="0"/></clipPath></defs><g class="layer-above"><g class="imagelayer"/><g class="shapelayer"/></g><g class="infolayer"><g class="legend" pointer-events="all" transform="translate(614.88, 60)"><rect class="bg" shape-rendering="crispEdges" width="73" height="48" x="0" y="0" style="stroke: rgb(68, 68, 68); stroke-opacity: 1; fill: rgb(255, 255, 255); fill-opacity: 1; stroke-width: 0px;"/><g class="scrollbox" transform="translate(0, 0)" clip-path="url('#legend9d6349')"><g class="groups"><g class="traces" transform="translate(0, 14.5)" style="opacity: 1;"><text class="legendtext user-select-none" text-anchor="start" x="40" y="4.680000000000001" style="font-family: 'Open Sans', verdana, arial, sans-serif; font-size: 12px; fill: rgb(68, 68, 68); fill-opacity: 1; white-space: pre;">train</text><g class="layers" style="opacity: 1;"><g class="legendfill"/><g class="legendlines"><path class="js-line" d="M5,0h30" style="fill: none; stroke: rgb(31, 119, 180); stroke-opacity: 1; stroke-width: 2px;"/></g><g class="legendsymbols"><g class="legendpoints"/></g></g><rect class="legendtoggle" pointer-events="all" x="0" y="-9.5" width="67.73437690734863" height="19" style="cursor: pointer; fill: rgb(0, 0, 0); fill-opacity: 0;"/></g><g class="traces" transform="translate(0, 33.5)" style="opacity: 1;"><text class="legendtext user-select-none" text-anchor="start" x="40" y="4.680000000000001" style="font-family: 'Open Sans', verdana, arial, sans-serif; font-size: 12px; fill: rgb(68, 68, 68); fill-opacity: 1; white-space: pre;">val</text><g class="layers" style="opacity: 1;"><g class="legendfill"/><g class="legendlines"><path class="js-line" d="M5,0h30" style="fill: none; stroke: rgb(255, 127, 14); stroke-opacity: 1; stroke-width: 2px;"/></g><g class="legendsymbols"><g class="legendpoints"/></g></g><rect class="legendtoggle" pointer-events="all" x="0" y="-9.5" width="67.73437690734863" height="19" style="cursor: pointer; fill: rgb(0, 0, 0); fill-opacity: 0;"/></g></g></g><rect class="scrollbar" rx="20" ry="3" width="0" height="0" x="0" y="0" style="fill: rgb(128, 139, 164); fill-opacity: 1;"/></g><g class="g-gtitle"><text class="gtitle" x="350" y="30" text-anchor="middle" dy="0em" style="font-family: 'Open Sans', verdana, arial, sans-serif; font-size: 17px; fill: rgb(68, 68, 68); opacity: 1; font-weight: normal; white-space: pre;">train&amp;&amp;val loss</text></g><g class="g-xtitle"/><g class="g-ytitle"/></g></svg>